<?xml version="1.0" encoding="UTF-8" standalone="no"?>
<!DOCTYPE svg PUBLIC "-//W3C//DTD SVG 1.1//EN"
 "http://www.w3.org/Graphics/SVG/1.1/DTD/svg11.dtd">
<!-- Generated by graphviz version 2.43.0 (0)
 -->
<!-- Title: MarketAssistants Pages: 1 -->
<svg width="982pt" height="486pt"
 viewBox="0.00 0.00 982.10 485.60" xmlns="http://www.w3.org/2000/svg" xmlns:xlink="http://www.w3.org/1999/xlink">
<g id="graph0" class="graph" transform="scale(1 1) rotate(0) translate(28.8 456.8)">
<title>MarketAssistants</title>
<polygon fill="white" stroke="transparent" points="-28.8,28.8 -28.8,-456.8 953.3,-456.8 953.3,28.8 -28.8,28.8"/>
<g id="clust1" class="cluster">
<title>cluster_orch</title>
<polygon fill="none" stroke="#a3c4f3" points="703,-220 703,-297 867,-297 867,-220 703,-220"/>
<text text-anchor="middle" x="785" y="-281.8" font-family="Times,serif" font-size="14.00">Orchestration Layer</text>
</g>
<g id="clust2" class="cluster">
<title>cluster_analysis</title>
<polygon fill="none" stroke="#c3e6cb" points="8,-221 8,-420 695,-420 695,-221 8,-221"/>
<text text-anchor="middle" x="351.5" y="-404.8" font-family="Times,serif" font-size="14.00">Analysis Layer (multiprocessing)</text>
</g>
<g id="clust3" class="cluster">
<title>cluster_data</title>
<polygon fill="none" stroke="#89c2d9" points="579,-8 579,-186 729,-186 729,-8 579,-8"/>
<text text-anchor="middle" x="654" y="-170.8" font-family="Times,serif" font-size="14.00">Data Layer</text>
</g>
<!-- Reporting -->
<g id="node1" class="node">
<title>Reporting</title>
<path fill="#fff2cc" stroke="black" d="M847.5,-266C847.5,-266 722.5,-266 722.5,-266 716.5,-266 710.5,-260 710.5,-254 710.5,-254 710.5,-240 710.5,-240 710.5,-234 716.5,-228 722.5,-228 722.5,-228 847.5,-228 847.5,-228 853.5,-228 859.5,-234 859.5,-240 859.5,-240 859.5,-254 859.5,-254 859.5,-260 853.5,-266 847.5,-266"/>
<text text-anchor="middle" x="785" y="-250.8" font-family="Inter, Helvetica, Arial, sans-serif" font-size="14.00">Reporting Assistant</text>
<text text-anchor="middle" x="785" y="-235.8" font-family="Inter, Helvetica, Arial, sans-serif" font-size="14.00">(Central Orchestrator)</text>
</g>
<!-- Fundamentals -->
<g id="node2" class="node">
<title>Fundamentals</title>
<path fill="#e8f8ec" stroke="black" d="M352.5,-389C352.5,-389 217.5,-389 217.5,-389 211.5,-389 205.5,-383 205.5,-377 205.5,-377 205.5,-365 205.5,-365 205.5,-359 211.5,-353 217.5,-353 217.5,-353 352.5,-353 352.5,-353 358.5,-353 364.5,-359 364.5,-365 364.5,-365 364.5,-377 364.5,-377 364.5,-383 358.5,-389 352.5,-389"/>
<text text-anchor="middle" x="285" y="-367.3" font-family="Inter, Helvetica, Arial, sans-serif" font-size="14.00">fundamentals_assistant</text>
</g>
<!-- Reporting&#45;&gt;Fundamentals -->
<g id="edge2" class="edge">
<title>Reporting&#45;&gt;Fundamentals</title>
<path fill="none" stroke="black" d="M773.5,-266.03C773.5,-288.84 773.5,-324 773.5,-324 773.5,-324 351.83,-324 351.83,-324 351.83,-324 351.83,-342.96 351.83,-342.96"/>
<polygon fill="black" stroke="black" points="348.33,-342.96 351.83,-352.96 355.33,-342.96 348.33,-342.96"/>
</g>
<!-- Graphing -->
<g id="node3" class="node">
<title>Graphing</title>
<path fill="#e8f8ec" stroke="black" d="M526,-389C526,-389 420,-389 420,-389 414,-389 408,-383 408,-377 408,-377 408,-365 408,-365 408,-359 414,-353 420,-353 420,-353 526,-353 526,-353 532,-353 538,-359 538,-365 538,-365 538,-377 538,-377 538,-383 532,-389 526,-389"/>
<text text-anchor="middle" x="473" y="-367.3" font-family="Inter, Helvetica, Arial, sans-serif" font-size="14.00">graphing_assistant</text>
</g>
<!-- Reporting&#45;&gt;Graphing -->
<g id="edge4" class="edge">
<title>Reporting&#45;&gt;Graphing</title>
<path fill="none" stroke="black" d="M710.31,-257C650.19,-257 575.67,-257 575.67,-257 575.67,-257 575.67,-377 575.67,-377 575.67,-377 548.02,-377 548.02,-377"/>
<polygon fill="black" stroke="black" points="548.02,-373.5 538.02,-377 548.02,-380.5 548.02,-373.5"/>
</g>
<!-- Strategies -->
<g id="node4" class="node">
<title>Strategies</title>
<path fill="#e8f8ec" stroke="black" d="M553,-265C553,-265 441,-265 441,-265 435,-265 429,-259 429,-253 429,-253 429,-241 429,-241 429,-235 435,-229 441,-229 441,-229 553,-229 553,-229 559,-229 565,-235 565,-241 565,-241 565,-253 565,-253 565,-259 559,-265 553,-265"/>
<text text-anchor="middle" x="497" y="-243.3" font-family="Inter, Helvetica, Arial, sans-serif" font-size="14.00">strategies_assistant</text>
</g>
<!-- Reporting&#45;&gt;Strategies -->
<g id="edge6" class="edge">
<title>Reporting&#45;&gt;Strategies</title>
<path fill="none" stroke="black" d="M710.46,-243C710.46,-243 575.31,-243 575.31,-243"/>
<polygon fill="black" stroke="black" points="575.31,-239.5 565.31,-243 575.31,-246.5 575.31,-239.5"/>
</g>
<!-- SupportRes -->
<g id="node5" class="node">
<title>SupportRes</title>
<path fill="#e8f8ec" stroke="black" d="M314.5,-265C314.5,-265 147.5,-265 147.5,-265 141.5,-265 135.5,-259 135.5,-253 135.5,-253 135.5,-241 135.5,-241 135.5,-235 141.5,-229 147.5,-229 147.5,-229 314.5,-229 314.5,-229 320.5,-229 326.5,-235 326.5,-241 326.5,-241 326.5,-253 326.5,-253 326.5,-259 320.5,-265 314.5,-265"/>
<text text-anchor="middle" x="231" y="-243.3" font-family="Inter, Helvetica, Arial, sans-serif" font-size="14.00">support_resistance_assistant</text>
</g>
<!-- Reporting&#45;&gt;SupportRes -->
<g id="edge8" class="edge">
<title>Reporting&#45;&gt;SupportRes</title>
<path fill="none" stroke="black" d="M715.5,-227.83C715.5,-215.97 715.5,-203 715.5,-203 715.5,-203 262.83,-203 262.83,-203 262.83,-203 262.83,-218.85 262.83,-218.85"/>
<polygon fill="black" stroke="black" points="259.33,-218.85 262.83,-228.85 266.33,-218.85 259.33,-218.85"/>
</g>
<!-- Backtesting -->
<g id="node6" class="node">
<title>Backtesting</title>
<path fill="#e8f8ec" stroke="black" d="M150,-389C150,-389 28,-389 28,-389 22,-389 16,-383 16,-377 16,-377 16,-365 16,-365 16,-359 22,-353 28,-353 28,-353 150,-353 150,-353 156,-353 162,-359 162,-365 162,-365 162,-377 162,-377 162,-383 156,-389 150,-389"/>
<text text-anchor="middle" x="89" y="-367.3" font-family="Inter, Helvetica, Arial, sans-serif" font-size="14.00">backtesting_assistant</text>
</g>
<!-- Reporting&#45;&gt;Backtesting -->
<g id="edge10" class="edge">
<title>Reporting&#45;&gt;Backtesting</title>
<path fill="none" stroke="black" d="M763,-266.25C763,-279.6 763,-295 763,-295 763,-295 140.8,-295 140.8,-295 140.8,-295 140.8,-342.99 140.8,-342.99"/>
<polygon fill="black" stroke="black" points="137.3,-342.99 140.8,-352.99 144.3,-342.99 137.3,-342.99"/>
</g>
<!-- DateSec -->
<g id="node7" class="node">
<title>DateSec</title>
<path fill="#e8f8ec" stroke="black" d="M675,-389C675,-389 593,-389 593,-389 587,-389 581,-383 581,-377 581,-377 581,-365 581,-365 581,-359 587,-353 593,-353 593,-353 675,-353 675,-353 681,-353 687,-359 687,-365 687,-365 687,-377 687,-377 687,-383 681,-389 675,-389"/>
<text text-anchor="middle" x="634" y="-367.3" font-family="Inter, Helvetica, Arial, sans-serif" font-size="14.00">date_secretary</text>
</g>
<!-- Reporting&#45;&gt;DateSec -->
<g id="edge12" class="edge">
<title>Reporting&#45;&gt;DateSec</title>
<path fill="none" stroke="black" d="M742,-266.08C742,-297.82 742,-358 742,-358 742,-358 697.05,-358 697.05,-358"/>
<polygon fill="black" stroke="black" points="697.05,-354.5 687.05,-358 697.05,-361.5 697.05,-354.5"/>
</g>
<!-- DBA -->
<g id="node8" class="node">
<title>DBA</title>
<path fill="#e6f7ff" stroke="black" d="M708.5,-155C708.5,-155 599.5,-155 599.5,-155 593.5,-155 587.5,-149 587.5,-143 587.5,-143 587.5,-131 587.5,-131 587.5,-125 593.5,-119 599.5,-119 599.5,-119 708.5,-119 708.5,-119 714.5,-119 720.5,-125 720.5,-131 720.5,-131 720.5,-143 720.5,-143 720.5,-149 714.5,-155 708.5,-155"/>
<text text-anchor="middle" x="654" y="-133.3" font-family="Inter, Helvetica, Arial, sans-serif" font-size="14.00">database_assistant</text>
</g>
<!-- Reporting&#45;&gt;DBA -->
<g id="edge16" class="edge">
<title>Reporting&#45;&gt;DBA</title>
<path fill="none" stroke="black" d="M718,-227.84C718,-227.84 718,-165.21 718,-165.21"/>
<polygon fill="black" stroke="black" points="721.5,-165.21 718,-155.21 714.5,-165.21 721.5,-165.21"/>
</g>
<!-- Reports -->
<g id="node10" class="node">
<title>Reports</title>
<polygon fill="white" stroke="black" points="918.5,-155 763.5,-155 763.5,-119 924.5,-119 924.5,-149 918.5,-155"/>
<polyline fill="none" stroke="black" points="918.5,-155 918.5,-149 "/>
<polyline fill="none" stroke="black" points="924.5,-149 918.5,-149 "/>
<text text-anchor="middle" x="844" y="-133.3" font-family="Inter, Helvetica, Arial, sans-serif" font-size="14.00">Local Analysis / Reports</text>
</g>
<!-- Reporting&#45;&gt;Reports -->
<g id="edge18" class="edge">
<title>Reporting&#45;&gt;Reports</title>
<path fill="none" stroke="black" d="M811.5,-227.84C811.5,-227.84 811.5,-165.21 811.5,-165.21"/>
<polygon fill="black" stroke="black" points="815,-165.21 811.5,-155.21 808,-165.21 815,-165.21"/>
</g>
<!-- Fundamentals&#45;&gt;Reporting -->
<g id="edge3" class="edge">
<title>Fundamentals&#45;&gt;Reporting</title>
<path fill="none" stroke="black" d="M339.17,-352.96C339.17,-345.25 339.17,-338 339.17,-338 339.17,-338 731.5,-338 731.5,-338 731.5,-338 731.5,-276.3 731.5,-276.3"/>
<polygon fill="black" stroke="black" points="735,-276.3 731.5,-266.3 728,-276.3 735,-276.3"/>
</g>
<!-- Graphing&#45;&gt;Reporting -->
<g id="edge5" class="edge">
<title>Graphing&#45;&gt;Reporting</title>
<path fill="none" stroke="black" d="M538.19,-365C555.92,-365 570.33,-365 570.33,-365 570.33,-365 570.33,-250 570.33,-250 570.33,-250 700.22,-250 700.22,-250"/>
<polygon fill="black" stroke="black" points="700.22,-253.5 710.22,-250 700.22,-246.5 700.22,-253.5"/>
</g>
<!-- Strategies&#45;&gt;Reporting -->
<g id="edge7" class="edge">
<title>Strategies&#45;&gt;Reporting</title>
<path fill="none" stroke="black" d="M565.25,-236C565.25,-236 700.42,-236 700.42,-236"/>
<polygon fill="black" stroke="black" points="700.42,-239.5 710.42,-236 700.42,-232.5 700.42,-239.5"/>
</g>
<!-- SupportRes&#45;&gt;Reporting -->
<g id="edge9" class="edge">
<title>SupportRes&#45;&gt;Reporting</title>
<path fill="none" stroke="black" d="M199.17,-228.78C199.17,-208.63 199.17,-179 199.17,-179 199.17,-179 713,-179 713,-179 713,-179 713,-217.7 713,-217.7"/>
<polygon fill="black" stroke="black" points="709.5,-217.7 713,-227.7 716.5,-217.7 709.5,-217.7"/>
</g>
<!-- Backtesting&#45;&gt;Reporting -->
<g id="edge11" class="edge">
<title>Backtesting&#45;&gt;Reporting</title>
<path fill="none" stroke="black" d="M151.4,-352.73C151.4,-334.44 151.4,-309 151.4,-309 151.4,-309 721,-309 721,-309 721,-309 721,-276.28 721,-276.28"/>
<polygon fill="black" stroke="black" points="724.5,-276.28 721,-266.28 717.5,-276.28 724.5,-276.28"/>
</g>
<!-- Backtesting&#45;&gt;Strategies -->
<g id="edge14" class="edge">
<title>Backtesting&#45;&gt;Strategies</title>
<path fill="none" stroke="black" stroke-dasharray="5,2" d="M146.1,-352.58C146.1,-325.99 146.1,-280 146.1,-280 146.1,-280 483.5,-280 483.5,-280 483.5,-280 483.5,-275.04 483.5,-275.04"/>
<polygon fill="black" stroke="black" points="487,-275.04 483.5,-265.04 480,-275.04 487,-275.04"/>
</g>
<!-- Backtesting&#45;&gt;SupportRes -->
<g id="edge15" class="edge">
<title>Backtesting&#45;&gt;SupportRes</title>
<path fill="none" stroke="black" stroke-dasharray="5,2" d="M156.7,-352.97C156.7,-352.97 156.7,-275.05 156.7,-275.05"/>
<polygon fill="black" stroke="black" points="160.2,-275.05 156.7,-265.05 153.2,-275.05 160.2,-275.05"/>
</g>
<!-- DateSec&#45;&gt;Reporting -->
<g id="edge13" class="edge">
<title>DateSec&#45;&gt;Reporting</title>
<path fill="none" stroke="black" d="M687.01,-364C718.56,-364 752.5,-364 752.5,-364 752.5,-364 752.5,-276.06 752.5,-276.06"/>
<polygon fill="black" stroke="black" points="756,-276.06 752.5,-266.06 749,-276.06 756,-276.06"/>
</g>
<!-- PG -->
<g id="node9" class="node">
<title>PG</title>
<path fill="#e6f7ff" stroke="black" d="M718,-48.73C718,-50.53 689.31,-52 654,-52 618.69,-52 590,-50.53 590,-48.73 590,-48.73 590,-19.27 590,-19.27 590,-17.47 618.69,-16 654,-16 689.31,-16 718,-17.47 718,-19.27 718,-19.27 718,-48.73 718,-48.73"/>
<path fill="none" stroke="black" d="M718,-48.73C718,-46.92 689.31,-45.45 654,-45.45 618.69,-45.45 590,-46.92 590,-48.73"/>
<text text-anchor="middle" x="654" y="-30.3" font-family="Inter, Helvetica, Arial, sans-serif" font-size="14.00">AWS Postgres DB</text>
</g>
<!-- DBA&#45;&gt;PG -->
<g id="edge17" class="edge">
<title>DBA&#45;&gt;PG</title>
<path fill="none" stroke="black" d="M654,-118.59C654,-118.59 654,-62.25 654,-62.25"/>
<polygon fill="black" stroke="black" points="657.5,-62.25 654,-52.25 650.5,-62.25 657.5,-62.25"/>
</g>
<!-- External -->
<g id="node11" class="node">
<title>External</title>
<ellipse fill="black" stroke="black" cx="785" cy="-371" rx="0" ry="0"/>
</g>
<!-- External&#45;&gt;Reporting -->
<g id="edge1" class="edge">
<title>External&#45;&gt;Reporting</title>
<path fill="none" stroke="black" stroke-dasharray="1,5" d="M785,-370.91C785,-370.91 785,-276.1 785,-276.1"/>
<polygon fill="black" stroke="black" points="788.5,-276.1 785,-266.1 781.5,-276.1 788.5,-276.1"/>
<text text-anchor="middle" x="825" y="-308.8" font-family="Times,serif" font-size="14.00">CLI / script</text>
</g>
</g>
</svg>
